<?xml version="1.0" encoding="UTF-8" standalone="no"?>
<!DOCTYPE svg PUBLIC "-//W3C//DTD SVG 1.1//EN"
 "http://www.w3.org/Graphics/SVG/1.1/DTD/svg11.dtd">
<!-- Generated by graphviz version 2.40.1 (20161225.0304)
 -->
<!-- Title: dependencies Pages: 1 -->
<svg width="511pt" height="211pt"
 viewBox="0.00 0.00 511.00 211.00" xmlns="http://www.w3.org/2000/svg" xmlns:xlink="http://www.w3.org/1999/xlink">
<g id="graph0" class="graph" transform="scale(1 1) rotate(0) translate(4 207)">
<title>dependencies</title>
<polygon fill="#ffffff" stroke="transparent" points="-4,4 -4,-207 507,-207 507,4 -4,4"/>
<text text-anchor="start" x="230.5091" y="-42.4" font-family="sans-serif" font-weight="bold" font-size="14.00" fill="#000000">Legend</text>
<polygon fill="#ffffb3" stroke="transparent" points="17.5,-10 17.5,-30 37.5,-30 37.5,-10 17.5,-10"/>
<text text-anchor="start" x="41.129" y="-15.4" font-family="sans-serif" font-size="14.00" fill="#000000"> &#160;Declarations</text>
<polygon fill="#8dd3c7" stroke="transparent" points="130.5,-10 130.5,-30 150.5,-30 150.5,-10 130.5,-10"/>
<text text-anchor="start" x="154.2251" y="-15.4" font-family="sans-serif" font-size="14.00" fill="#000000"> &#160;Module</text>
<polygon fill="#80b1d3" stroke="transparent" points="216.5,-10 216.5,-30 236.5,-30 236.5,-10 216.5,-10"/>
<text text-anchor="start" x="240.2812" y="-15.4" font-family="sans-serif" font-size="14.00" fill="#000000"> &#160;Bootstrap</text>
<polygon fill="#fdb462" stroke="transparent" points="313.5,-10 313.5,-30 333.5,-30 333.5,-10 313.5,-10"/>
<text text-anchor="start" x="337.1732" y="-15.4" font-family="sans-serif" font-size="14.00" fill="#000000"> &#160;Providers</text>
<polygon fill="#fb8072" stroke="transparent" points="409.5,-10 409.5,-30 429.5,-30 429.5,-10 409.5,-10"/>
<text text-anchor="start" x="433.2258" y="-15.4" font-family="sans-serif" font-size="14.00" fill="#000000"> &#160;Exports</text>
<g id="clust1" class="cluster">
<title>cluster_ShoppingListModule</title>
<polygon fill="none" stroke="#000000" stroke-dasharray="1,5" points="8,-70 8,-195 495,-195 495,-70 8,-70"/>
</g>
<g id="clust2" class="cluster">
<title>cluster_ShoppingListModule_declarations</title>
<polygon fill="none" stroke="#000000" points="138,-78 138,-130 487,-130 487,-78 138,-78"/>
</g>
<g id="clust5" class="cluster">
<title>cluster_ShoppingListModule_imports</title>
<polygon fill="none" stroke="#000000" points="16,-78 16,-130 130,-130 130,-78 16,-78"/>
</g>
<!-- ShoppingEditComponent -->
<g id="node1" class="node">
<title>ShoppingEditComponent</title>
<polygon fill="#ffffb3" stroke="#000000" points="479.3398,-122 320.6602,-122 320.6602,-86 479.3398,-86 479.3398,-122"/>
<text text-anchor="middle" x="400" y="-99.8" font-family="Times,serif" font-size="14.00" fill="#000000">ShoppingEditComponent</text>
</g>
<!-- ShoppingListModule -->
<g id="node3" class="node">
<title>ShoppingListModule</title>
<polygon fill="#8dd3c7" stroke="#000000" points="291.5014,-187 288.5014,-191 267.5014,-191 264.5014,-187 156.4986,-187 156.4986,-151 291.5014,-151 291.5014,-187"/>
<text text-anchor="middle" x="224" y="-164.8" font-family="Times,serif" font-size="14.00" fill="#000000">ShoppingListModule</text>
</g>
<!-- ShoppingEditComponent&#45;&gt;ShoppingListModule -->
<g id="edge1" class="edge">
<title>ShoppingEditComponent&#45;&gt;ShoppingListModule</title>
<path fill="none" stroke="#000000" d="M400,-122.1061C400,-141.3391 400,-169 400,-169 400,-169 301.5428,-169 301.5428,-169"/>
<polygon fill="#000000" stroke="#000000" points="301.5429,-165.5001 291.5428,-169 301.5428,-172.5001 301.5429,-165.5001"/>
</g>
<!-- ShoppingListComponent -->
<g id="node2" class="node">
<title>ShoppingListComponent</title>
<polygon fill="#ffffb3" stroke="#000000" points="302.2841,-122 145.7159,-122 145.7159,-86 302.2841,-86 302.2841,-122"/>
<text text-anchor="middle" x="224" y="-99.8" font-family="Times,serif" font-size="14.00" fill="#000000">ShoppingListComponent</text>
</g>
<!-- ShoppingListComponent&#45;&gt;ShoppingListModule -->
<g id="edge2" class="edge">
<title>ShoppingListComponent&#45;&gt;ShoppingListModule</title>
<path fill="none" stroke="#000000" d="M224,-122.1061C224,-122.1061 224,-140.991 224,-140.991"/>
<polygon fill="#000000" stroke="#000000" points="220.5001,-140.9909 224,-150.991 227.5001,-140.991 220.5001,-140.9909"/>
</g>
<!-- SharedModule -->
<g id="node4" class="node">
<title>SharedModule</title>
<polygon fill="#8dd3c7" stroke="#000000" points="122.4231,-122 119.4231,-126 98.4231,-126 95.4231,-122 23.5769,-122 23.5769,-86 122.4231,-86 122.4231,-122"/>
<text text-anchor="middle" x="73" y="-99.8" font-family="Times,serif" font-size="14.00" fill="#000000">SharedModule</text>
</g>
<!-- SharedModule&#45;&gt;ShoppingListModule -->
<g id="edge3" class="edge">
<title>SharedModule&#45;&gt;ShoppingListModule</title>
<path fill="none" stroke="#000000" d="M73,-122.1061C73,-141.3391 73,-169 73,-169 73,-169 146.4498,-169 146.4498,-169"/>
<polygon fill="#000000" stroke="#000000" points="146.4498,-172.5001 156.4498,-169 146.4497,-165.5001 146.4498,-172.5001"/>
</g>
</g>
</svg>
