<?xml version="1.0" encoding="UTF-8" standalone="no"?>
<!DOCTYPE svg PUBLIC "-//W3C//DTD SVG 1.1//EN"
 "http://www.w3.org/Graphics/SVG/1.1/DTD/svg11.dtd">
<!-- Generated by graphviz version 2.40.1 (20161225.0304)
 -->
<!-- Title: dependencies Pages: 1 -->
<svg width="3633pt" height="366pt"
 viewBox="0.00 0.00 3633.00 366.00" xmlns="http://www.w3.org/2000/svg" xmlns:xlink="http://www.w3.org/1999/xlink">
<g id="graph0" class="graph" transform="scale(1 1) rotate(0) translate(4 362)">
<title>dependencies</title>
<polygon fill="#ffffff" stroke="transparent" points="-4,4 -4,-362 3629,-362 3629,4 -4,4"/>
<text text-anchor="start" x="1791.5091" y="-42.4" font-family="sans-serif" font-weight="bold" font-size="14.00" fill="#000000">Legend</text>
<polygon fill="#ffffb3" stroke="transparent" points="1578.5,-10 1578.5,-30 1598.5,-30 1598.5,-10 1578.5,-10"/>
<text text-anchor="start" x="1602.129" y="-15.4" font-family="sans-serif" font-size="14.00" fill="#000000"> &#160;Declarations</text>
<polygon fill="#8dd3c7" stroke="transparent" points="1691.5,-10 1691.5,-30 1711.5,-30 1711.5,-10 1691.5,-10"/>
<text text-anchor="start" x="1715.2251" y="-15.4" font-family="sans-serif" font-size="14.00" fill="#000000"> &#160;Module</text>
<polygon fill="#80b1d3" stroke="transparent" points="1777.5,-10 1777.5,-30 1797.5,-30 1797.5,-10 1777.5,-10"/>
<text text-anchor="start" x="1801.2812" y="-15.4" font-family="sans-serif" font-size="14.00" fill="#000000"> &#160;Bootstrap</text>
<polygon fill="#fdb462" stroke="transparent" points="1874.5,-10 1874.5,-30 1894.5,-30 1894.5,-10 1874.5,-10"/>
<text text-anchor="start" x="1898.1732" y="-15.4" font-family="sans-serif" font-size="14.00" fill="#000000"> &#160;Providers</text>
<polygon fill="#fb8072" stroke="transparent" points="1970.5,-10 1970.5,-30 1990.5,-30 1990.5,-10 1970.5,-10"/>
<text text-anchor="start" x="1994.2258" y="-15.4" font-family="sans-serif" font-size="14.00" fill="#000000"> &#160;Exports</text>
<g id="clust1" class="cluster">
<title>cluster_AppModule</title>
<polygon fill="none" stroke="#000000" stroke-dasharray="1,5" points="1282,-146 1282,-350 1934,-350 1934,-146 1282,-146"/>
</g>
<g id="clust2" class="cluster">
<title>cluster_AppModule_declarations</title>
<polygon fill="none" stroke="#000000" points="1664,-154 1664,-206 1926,-206 1926,-154 1664,-154"/>
</g>
<g id="clust5" class="cluster">
<title>cluster_AppModule_imports</title>
<polygon fill="none" stroke="#000000" points="1290,-154 1290,-206 1656,-206 1656,-154 1290,-154"/>
</g>
<g id="clust7" class="cluster">
<title>cluster_AppModule_bootstrap</title>
<polygon fill="none" stroke="#000000" points="1522,-290 1522,-342 1646,-342 1646,-290 1522,-290"/>
</g>
<g id="clust15" class="cluster">
<title>cluster_AuthModule</title>
<polygon fill="none" stroke="#000000" stroke-dasharray="1,5" points="1942,-146 1942,-274 2084,-274 2084,-146 1942,-146"/>
</g>
<g id="clust16" class="cluster">
<title>cluster_AuthModule_declarations</title>
<polygon fill="none" stroke="#000000" points="1950,-154 1950,-206 2076,-206 2076,-154 1950,-154"/>
</g>
<g id="clust22" class="cluster">
<title>cluster_CoreModule</title>
<polygon fill="none" stroke="#000000" stroke-dasharray="1,5" points="1340,-70 1340,-138 1576,-138 1576,-70 1340,-70"/>
</g>
<g id="clust27" class="cluster">
<title>cluster_CoreModule_providers</title>
<polygon fill="none" stroke="#000000" points="1348,-78 1348,-130 1568,-130 1568,-78 1348,-78"/>
</g>
<g id="clust28" class="cluster">
<title>cluster_RecipesModule</title>
<polygon fill="none" stroke="#000000" stroke-dasharray="1,5" points="2092,-146 2092,-274 3244,-274 3244,-146 2092,-146"/>
</g>
<g id="clust29" class="cluster">
<title>cluster_RecipesModule_declarations</title>
<polygon fill="none" stroke="#000000" points="2272,-154 2272,-206 3236,-206 3236,-154 2272,-154"/>
</g>
<g id="clust36" class="cluster">
<title>cluster_RecipesModule_imports</title>
<polygon fill="none" stroke="#000000" points="2100,-154 2100,-206 2264,-206 2264,-154 2100,-154"/>
</g>
<g id="clust46" class="cluster">
<title>cluster_SharedModule</title>
<polygon fill="none" stroke="#000000" stroke-dasharray="1,5" points="8,-214 8,-282 1274,-282 1274,-214 8,-214"/>
</g>
<g id="clust47" class="cluster">
<title>cluster_SharedModule_declarations</title>
<polygon fill="none" stroke="#000000" points="652,-222 652,-274 1266,-274 1266,-222 652,-222"/>
</g>
<g id="clust53" class="cluster">
<title>cluster_SharedModule_exports</title>
<polygon fill="none" stroke="#000000" points="16,-222 16,-274 644,-274 644,-222 16,-222"/>
</g>
<g id="clust56" class="cluster">
<title>cluster_ShoppingListModule</title>
<polygon fill="none" stroke="#000000" stroke-dasharray="1,5" points="3252,-146 3252,-274 3617,-274 3617,-146 3252,-146"/>
</g>
<g id="clust57" class="cluster">
<title>cluster_ShoppingListModule_declarations</title>
<polygon fill="none" stroke="#000000" points="3260,-154 3260,-206 3609,-206 3609,-154 3260,-154"/>
</g>
<!-- AppComponent -->
<g id="node1" class="node">
<title>AppComponent</title>
<polygon fill="#ffffb3" stroke="#000000" points="1917.9399,-198 1812.0601,-198 1812.0601,-162 1917.9399,-162 1917.9399,-198"/>
<text text-anchor="middle" x="1865" y="-175.8" font-family="Times,serif" font-size="14.00" fill="#000000">AppComponent</text>
</g>
<!-- AppModule -->
<g id="node3" class="node">
<title>AppModule</title>
<polygon fill="#8dd3c7" stroke="#000000" points="1625.6571,-266 1622.6571,-270 1601.6571,-270 1598.6571,-266 1542.3429,-266 1542.3429,-230 1625.6571,-230 1625.6571,-266"/>
<text text-anchor="middle" x="1584" y="-243.8" font-family="Times,serif" font-size="14.00" fill="#000000">AppModule</text>
</g>
<!-- AppComponent&#45;&gt;AppModule -->
<g id="edge1" class="edge">
<title>AppComponent&#45;&gt;AppModule</title>
<path fill="none" stroke="#000000" d="M1865,-198.2921C1865,-220.2057 1865,-254 1865,-254 1865,-254 1635.7651,-254 1635.7651,-254"/>
<polygon fill="#000000" stroke="#000000" points="1635.7652,-250.5001 1625.7651,-254 1635.7651,-257.5001 1635.7652,-250.5001"/>
</g>
<!-- HeaderComponent -->
<g id="node2" class="node">
<title>HeaderComponent</title>
<polygon fill="#ffffb3" stroke="#000000" points="1793.7437,-198 1672.2563,-198 1672.2563,-162 1793.7437,-162 1793.7437,-198"/>
<text text-anchor="middle" x="1733" y="-175.8" font-family="Times,serif" font-size="14.00" fill="#000000">HeaderComponent</text>
</g>
<!-- HeaderComponent&#45;&gt;AppModule -->
<g id="edge2" class="edge">
<title>HeaderComponent&#45;&gt;AppModule</title>
<path fill="none" stroke="#000000" d="M1733,-198.2667C1733,-216.5552 1733,-242 1733,-242 1733,-242 1635.9013,-242 1635.9013,-242"/>
<polygon fill="#000000" stroke="#000000" points="1635.9014,-238.5001 1625.9013,-242 1635.9013,-245.5001 1635.9014,-238.5001"/>
</g>
<!-- AppComponent  -->
<g id="node7" class="node">
<title>AppComponent </title>
<polygon fill="#80b1d3" stroke="#000000" points="1638.439,-334 1529.561,-334 1529.561,-298 1638.439,-298 1638.439,-334"/>
<text text-anchor="middle" x="1584" y="-311.8" font-family="Times,serif" font-size="14.00" fill="#000000">AppComponent </text>
</g>
<!-- AppModule&#45;&gt;AppComponent  -->
<g id="edge6" class="edge">
<title>AppModule&#45;&gt;AppComponent </title>
<path fill="none" stroke="#000000" stroke-dasharray="1,5" d="M1584,-266.2228C1584,-266.2228 1584,-287.7269 1584,-287.7269"/>
<polygon fill="#000000" stroke="#000000" points="1580.5001,-287.7269 1584,-297.7269 1587.5001,-287.727 1580.5001,-287.7269"/>
</g>
<!-- AppRoutingModule -->
<g id="node4" class="node">
<title>AppRoutingModule</title>
<polygon fill="#8dd3c7" stroke="#000000" points="1648.2744,-198 1645.2744,-202 1624.2744,-202 1621.2744,-198 1519.7256,-198 1519.7256,-162 1648.2744,-162 1648.2744,-198"/>
<text text-anchor="middle" x="1584" y="-175.8" font-family="Times,serif" font-size="14.00" fill="#000000">AppRoutingModule</text>
</g>
<!-- AppRoutingModule&#45;&gt;AppModule -->
<g id="edge3" class="edge">
<title>AppRoutingModule&#45;&gt;AppModule</title>
<path fill="none" stroke="#000000" d="M1584,-198.2228C1584,-198.2228 1584,-219.7269 1584,-219.7269"/>
<polygon fill="#000000" stroke="#000000" points="1580.5001,-219.7269 1584,-229.7269 1587.5001,-219.727 1580.5001,-219.7269"/>
</g>
<!-- CoreModule -->
<g id="node5" class="node">
<title>CoreModule</title>
<polygon fill="#8dd3c7" stroke="#000000" points="1501.2619,-198 1498.2619,-202 1477.2619,-202 1474.2619,-198 1414.7381,-198 1414.7381,-162 1501.2619,-162 1501.2619,-198"/>
<text text-anchor="middle" x="1458" y="-175.8" font-family="Times,serif" font-size="14.00" fill="#000000">CoreModule</text>
</g>
<!-- CoreModule&#45;&gt;AppModule -->
<g id="edge4" class="edge">
<title>CoreModule&#45;&gt;AppModule</title>
<path fill="none" stroke="#000000" d="M1458,-198.2228C1458,-218.3652 1458,-248 1458,-248 1458,-248 1532.0438,-248 1532.0438,-248"/>
<polygon fill="#000000" stroke="#000000" points="1532.0439,-251.5001 1542.0438,-248 1532.0438,-244.5001 1532.0439,-251.5001"/>
</g>
<!-- SharedModule -->
<g id="node6" class="node">
<title>SharedModule</title>
<polygon fill="#8dd3c7" stroke="#000000" points="1396.4231,-198 1393.4231,-202 1372.4231,-202 1369.4231,-198 1297.5769,-198 1297.5769,-162 1396.4231,-162 1396.4231,-198"/>
<text text-anchor="middle" x="1347" y="-175.8" font-family="Times,serif" font-size="14.00" fill="#000000">SharedModule</text>
</g>
<!-- SharedModule&#45;&gt;AppModule -->
<g id="edge5" class="edge">
<title>SharedModule&#45;&gt;AppModule</title>
<path fill="none" stroke="#000000" d="M1379.8074,-198.2479C1379.8074,-221.0179 1379.8074,-257 1379.8074,-257 1379.8074,-257 1532.1858,-257 1532.1858,-257"/>
<polygon fill="#000000" stroke="#000000" points="1532.1859,-260.5001 1542.1858,-257 1532.1858,-253.5001 1532.1859,-260.5001"/>
</g>
<!-- AuthModule -->
<g id="node9" class="node">
<title>AuthModule</title>
<polygon fill="#8dd3c7" stroke="#000000" points="2046.5482,-266 2043.5482,-270 2022.5482,-270 2019.5482,-266 1959.4518,-266 1959.4518,-230 2046.5482,-230 2046.5482,-266"/>
<text text-anchor="middle" x="2003" y="-243.8" font-family="Times,serif" font-size="14.00" fill="#000000">AuthModule</text>
</g>
<!-- SharedModule&#45;&gt;AuthModule -->
<g id="edge8" class="edge">
<title>SharedModule&#45;&gt;AuthModule</title>
<path fill="none" stroke="#000000" d="M1314.1926,-198.0555C1314.1926,-209.439 1314.1926,-222 1314.1926,-222 1314.1926,-222 1988.4088,-222 1988.4088,-222 1988.4088,-222 1988.4088,-222.7942 1988.4088,-222.7942"/>
<polygon fill="#000000" stroke="#000000" points="1984.909,-219.9421 1988.4088,-229.9421 1991.909,-219.9422 1984.909,-219.9421"/>
</g>
<!-- RecipesModule -->
<g id="node17" class="node">
<title>RecipesModule</title>
<polygon fill="#8dd3c7" stroke="#000000" points="2629.8655,-266 2626.8655,-270 2605.8655,-270 2602.8655,-266 2526.1345,-266 2526.1345,-230 2629.8655,-230 2629.8655,-266"/>
<text text-anchor="middle" x="2578" y="-243.8" font-family="Times,serif" font-size="14.00" fill="#000000">RecipesModule</text>
</g>
<!-- SharedModule&#45;&gt;RecipesModule -->
<g id="edge17" class="edge">
<title>SharedModule&#45;&gt;RecipesModule</title>
<path fill="none" stroke="#000000" d="M1330.5963,-198.1944C1330.5963,-206.2782 1330.5963,-214 1330.5963,-214 1330.5963,-214 2540.8186,-214 2540.8186,-214 2540.8186,-214 2540.8186,-219.8056 2540.8186,-219.8056"/>
<polygon fill="#000000" stroke="#000000" points="2537.3187,-219.8055 2540.8186,-229.8056 2544.3187,-219.8056 2537.3187,-219.8055"/>
</g>
<!-- AlertComponent  -->
<g id="node23" class="node">
<title>AlertComponent </title>
<polygon fill="#fb8072" stroke="#000000" points="635.5961,-266 522.4039,-266 522.4039,-230 635.5961,-230 635.5961,-266"/>
<text text-anchor="middle" x="579" y="-243.8" font-family="Times,serif" font-size="14.00" fill="#000000">AlertComponent </text>
</g>
<!-- SharedModule&#45;&gt;AlertComponent  -->
<g id="edge22" class="edge">
<title>SharedModule&#45;&gt;AlertComponent </title>
<path fill="none" stroke="#000000" stroke-dasharray="5,2" d="M1297.4959,-180C1127.6501,-180 579,-180 579,-180 579,-180 579,-219.7772 579,-219.7772"/>
<polygon fill="#000000" stroke="#000000" points="575.5001,-219.7772 579,-229.7772 582.5001,-219.7773 575.5001,-219.7772"/>
</g>
<!-- DropdownDirective  -->
<g id="node24" class="node">
<title>DropdownDirective </title>
<polygon fill="#fb8072" stroke="#000000" points="503.9574,-266 372.0426,-266 372.0426,-230 503.9574,-230 503.9574,-266"/>
<text text-anchor="middle" x="438" y="-243.8" font-family="Times,serif" font-size="14.00" fill="#000000">DropdownDirective </text>
</g>
<!-- SharedModule&#45;&gt;DropdownDirective  -->
<g id="edge23" class="edge">
<title>SharedModule&#45;&gt;DropdownDirective </title>
<path fill="none" stroke="#000000" stroke-dasharray="5,2" d="M1297.4827,-176C1107.7947,-176 438,-176 438,-176 438,-176 438,-219.8314 438,-219.8314"/>
<polygon fill="#000000" stroke="#000000" points="434.5001,-219.8313 438,-229.8314 441.5001,-219.8314 434.5001,-219.8313"/>
</g>
<!-- LoadingSpinnerComponent  -->
<g id="node25" class="node">
<title>LoadingSpinnerComponent </title>
<polygon fill="#fb8072" stroke="#000000" points="354.5386,-266 179.4614,-266 179.4614,-230 354.5386,-230 354.5386,-266"/>
<text text-anchor="middle" x="267" y="-243.8" font-family="Times,serif" font-size="14.00" fill="#000000">LoadingSpinnerComponent </text>
</g>
<!-- SharedModule&#45;&gt;LoadingSpinnerComponent  -->
<g id="edge24" class="edge">
<title>SharedModule&#45;&gt;LoadingSpinnerComponent </title>
<path fill="none" stroke="#000000" stroke-dasharray="5,2" d="M1297.7882,-171C1086.5087,-171 267,-171 267,-171 267,-171 267,-219.7521 267,-219.7521"/>
<polygon fill="#000000" stroke="#000000" points="263.5001,-219.752 267,-229.7521 270.5001,-219.7521 263.5001,-219.752"/>
</g>
<!-- PlaceholderDirective  -->
<g id="node26" class="node">
<title>PlaceholderDirective </title>
<polygon fill="#fb8072" stroke="#000000" points="161.666,-266 24.334,-266 24.334,-230 161.666,-230 161.666,-266"/>
<text text-anchor="middle" x="93" y="-243.8" font-family="Times,serif" font-size="14.00" fill="#000000">PlaceholderDirective </text>
</g>
<!-- SharedModule&#45;&gt;PlaceholderDirective  -->
<g id="edge25" class="edge">
<title>SharedModule&#45;&gt;PlaceholderDirective </title>
<path fill="none" stroke="#000000" stroke-dasharray="5,2" d="M1297.4555,-167C1064.9168,-167 93,-167 93,-167 93,-167 93,-219.6198 93,-219.6198"/>
<polygon fill="#000000" stroke="#000000" points="89.5001,-219.6198 93,-229.6198 96.5001,-219.6199 89.5001,-219.6198"/>
</g>
<!-- ShoppingListModule -->
<g id="node29" class="node">
<title>ShoppingListModule</title>
<polygon fill="#8dd3c7" stroke="#000000" points="3413.5014,-266 3410.5014,-270 3389.5014,-270 3386.5014,-266 3278.4986,-266 3278.4986,-230 3413.5014,-230 3413.5014,-266"/>
<text text-anchor="middle" x="3346" y="-243.8" font-family="Times,serif" font-size="14.00" fill="#000000">ShoppingListModule</text>
</g>
<!-- SharedModule&#45;&gt;ShoppingListModule -->
<g id="edge28" class="edge">
<title>SharedModule&#45;&gt;ShoppingListModule</title>
<path fill="none" stroke="#000000" d="M1347,-198.0579C1347,-202.4945 1347,-206 1347,-206 1347,-206 3323.4998,-206 3323.4998,-206 3323.4998,-206 3323.4998,-219.9445 3323.4998,-219.9445"/>
<polygon fill="#000000" stroke="#000000" points="3319.9999,-219.9444 3323.4998,-229.9445 3326.9999,-219.9445 3319.9999,-219.9444"/>
</g>
<!-- AuthComponent -->
<g id="node8" class="node">
<title>AuthComponent</title>
<polygon fill="#ffffb3" stroke="#000000" points="2067.8301,-198 1958.1699,-198 1958.1699,-162 2067.8301,-162 2067.8301,-198"/>
<text text-anchor="middle" x="2013" y="-175.8" font-family="Times,serif" font-size="14.00" fill="#000000">AuthComponent</text>
</g>
<!-- AuthComponent&#45;&gt;AuthModule -->
<g id="edge7" class="edge">
<title>AuthComponent&#45;&gt;AuthModule</title>
<path fill="none" stroke="#000000" d="M2017.5912,-198.2228C2017.5912,-198.2228 2017.5912,-219.7269 2017.5912,-219.7269"/>
<polygon fill="#000000" stroke="#000000" points="2014.0913,-219.7269 2017.5912,-229.7269 2021.0913,-219.727 2014.0913,-219.7269"/>
</g>
<!-- AuthInterceptorService -->
<g id="node10" class="node">
<title>AuthInterceptorService</title>
<ellipse fill="#fdb462" stroke="#000000" cx="1458" cy="-104" rx="101.8225" ry="18"/>
<text text-anchor="middle" x="1458" y="-99.8" font-family="Times,serif" font-size="14.00" fill="#000000">AuthInterceptorService</text>
</g>
<!-- AuthInterceptorService&#45;&gt;CoreModule -->
<g id="edge9" class="edge">
<title>AuthInterceptorService&#45;&gt;CoreModule</title>
<path fill="none" stroke="#000000" d="M1458,-122.0109C1458,-122.0109 1458,-151.855 1458,-151.855"/>
<polygon fill="#000000" stroke="#000000" points="1454.5001,-151.8549 1458,-161.855 1461.5001,-151.855 1454.5001,-151.8549"/>
</g>
<!-- RecipeDetailComponent -->
<g id="node11" class="node">
<title>RecipeDetailComponent</title>
<polygon fill="#ffffb3" stroke="#000000" points="3228.4115,-198 3073.5885,-198 3073.5885,-162 3228.4115,-162 3228.4115,-198"/>
<text text-anchor="middle" x="3151" y="-175.8" font-family="Times,serif" font-size="14.00" fill="#000000">RecipeDetailComponent</text>
</g>
<!-- RecipeDetailComponent&#45;&gt;RecipesModule -->
<g id="edge10" class="edge">
<title>RecipeDetailComponent&#45;&gt;RecipesModule</title>
<path fill="none" stroke="#000000" d="M3151,-198.2479C3151,-221.0179 3151,-257 3151,-257 3151,-257 2640.1145,-257 2640.1145,-257"/>
<polygon fill="#000000" stroke="#000000" points="2640.1145,-253.5001 2630.1145,-257 2640.1144,-260.5001 2640.1145,-253.5001"/>
</g>
<!-- RecipeEditComponent -->
<g id="node12" class="node">
<title>RecipeEditComponent</title>
<polygon fill="#ffffb3" stroke="#000000" points="3055.5379,-198 2912.4621,-198 2912.4621,-162 3055.5379,-162 3055.5379,-198"/>
<text text-anchor="middle" x="2984" y="-175.8" font-family="Times,serif" font-size="14.00" fill="#000000">RecipeEditComponent</text>
</g>
<!-- RecipeEditComponent&#45;&gt;RecipesModule -->
<g id="edge11" class="edge">
<title>RecipeEditComponent&#45;&gt;RecipesModule</title>
<path fill="none" stroke="#000000" d="M2984,-198.2228C2984,-218.3652 2984,-248 2984,-248 2984,-248 2640.2462,-248 2640.2462,-248"/>
<polygon fill="#000000" stroke="#000000" points="2640.2463,-244.5001 2630.2462,-248 2640.2462,-251.5001 2640.2463,-244.5001"/>
</g>
<!-- RecipeItemComponent -->
<g id="node13" class="node">
<title>RecipeItemComponent</title>
<polygon fill="#ffffb3" stroke="#000000" points="2893.8599,-198 2748.1401,-198 2748.1401,-162 2893.8599,-162 2893.8599,-198"/>
<text text-anchor="middle" x="2821" y="-175.8" font-family="Times,serif" font-size="14.00" fill="#000000">RecipeItemComponent</text>
</g>
<!-- RecipeItemComponent&#45;&gt;RecipesModule -->
<g id="edge12" class="edge">
<title>RecipeItemComponent&#45;&gt;RecipesModule</title>
<path fill="none" stroke="#000000" d="M2821,-198.0225C2821,-215.3734 2821,-239 2821,-239 2821,-239 2640.1296,-239 2640.1296,-239"/>
<polygon fill="#000000" stroke="#000000" points="2640.1296,-235.5001 2630.1296,-239 2640.1296,-242.5001 2640.1296,-235.5001"/>
</g>
<!-- RecipeListComponent -->
<g id="node14" class="node">
<title>RecipeListComponent</title>
<polygon fill="#ffffb3" stroke="#000000" points="2729.9818,-198 2588.0182,-198 2588.0182,-162 2729.9818,-162 2729.9818,-198"/>
<text text-anchor="middle" x="2659" y="-175.8" font-family="Times,serif" font-size="14.00" fill="#000000">RecipeListComponent</text>
</g>
<!-- RecipeListComponent&#45;&gt;RecipesModule -->
<g id="edge13" class="edge">
<title>RecipeListComponent&#45;&gt;RecipesModule</title>
<path fill="none" stroke="#000000" d="M2608.9709,-198.2228C2608.9709,-198.2228 2608.9709,-219.7269 2608.9709,-219.7269"/>
<polygon fill="#000000" stroke="#000000" points="2605.471,-219.7269 2608.9709,-229.7269 2612.471,-219.727 2605.471,-219.7269"/>
</g>
<!-- RecipeStartComponent -->
<g id="node15" class="node">
<title>RecipeStartComponent</title>
<polygon fill="#ffffb3" stroke="#000000" points="2570.1428,-198 2423.8572,-198 2423.8572,-162 2570.1428,-162 2570.1428,-198"/>
<text text-anchor="middle" x="2497" y="-175.8" font-family="Times,serif" font-size="14.00" fill="#000000">RecipeStartComponent</text>
</g>
<!-- RecipeStartComponent&#45;&gt;RecipesModule -->
<g id="edge14" class="edge">
<title>RecipeStartComponent&#45;&gt;RecipesModule</title>
<path fill="none" stroke="#000000" d="M2555.5699,-198.2228C2555.5699,-198.2228 2555.5699,-219.7269 2555.5699,-219.7269"/>
<polygon fill="#000000" stroke="#000000" points="2552.07,-219.7269 2555.5699,-229.7269 2559.07,-219.727 2552.07,-219.7269"/>
</g>
<!-- RecipesComponent -->
<g id="node16" class="node">
<title>RecipesComponent</title>
<polygon fill="#ffffb3" stroke="#000000" points="2405.6485,-198 2280.3515,-198 2280.3515,-162 2405.6485,-162 2405.6485,-198"/>
<text text-anchor="middle" x="2343" y="-175.8" font-family="Times,serif" font-size="14.00" fill="#000000">RecipesComponent</text>
</g>
<!-- RecipesComponent&#45;&gt;RecipesModule -->
<g id="edge15" class="edge">
<title>RecipesComponent&#45;&gt;RecipesModule</title>
<path fill="none" stroke="#000000" d="M2343,-198.2667C2343,-216.5552 2343,-242 2343,-242 2343,-242 2515.8459,-242 2515.8459,-242"/>
<polygon fill="#000000" stroke="#000000" points="2515.8459,-245.5001 2525.8459,-242 2515.8458,-238.5001 2515.8459,-245.5001"/>
</g>
<!-- RecipesRoutingModule -->
<g id="node18" class="node">
<title>RecipesRoutingModule</title>
<polygon fill="#8dd3c7" stroke="#000000" points="2256.4832,-198 2253.4832,-202 2232.4832,-202 2229.4832,-198 2107.5168,-198 2107.5168,-162 2256.4832,-162 2256.4832,-198"/>
<text text-anchor="middle" x="2182" y="-175.8" font-family="Times,serif" font-size="14.00" fill="#000000">RecipesRoutingModule</text>
</g>
<!-- RecipesRoutingModule&#45;&gt;RecipesModule -->
<g id="edge16" class="edge">
<title>RecipesRoutingModule&#45;&gt;RecipesModule</title>
<path fill="none" stroke="#000000" d="M2182,-198.2921C2182,-220.2057 2182,-254 2182,-254 2182,-254 2515.8227,-254 2515.8227,-254"/>
<polygon fill="#000000" stroke="#000000" points="2515.8227,-257.5001 2525.8227,-254 2515.8227,-250.5001 2515.8227,-257.5001"/>
</g>
<!-- AlertComponent -->
<g id="node19" class="node">
<title>AlertComponent</title>
<polygon fill="#ffffb3" stroke="#000000" points="1258.0954,-266 1147.9046,-266 1147.9046,-230 1258.0954,-230 1258.0954,-266"/>
<text text-anchor="middle" x="1203" y="-243.8" font-family="Times,serif" font-size="14.00" fill="#000000">AlertComponent</text>
</g>
<!-- AlertComponent&#45;&gt;SharedModule -->
<g id="edge18" class="edge">
<title>AlertComponent&#45;&gt;SharedModule</title>
<path fill="none" stroke="#000000" d="M1258.2019,-239C1304.6009,-239 1363.4037,-239 1363.4037,-239 1363.4037,-239 1363.4037,-208.0225 1363.4037,-208.0225"/>
<polygon fill="#000000" stroke="#000000" points="1366.9038,-208.0225 1363.4037,-198.0225 1359.9038,-208.0226 1366.9038,-208.0225"/>
</g>
<!-- DropdownDirective -->
<g id="node20" class="node">
<title>DropdownDirective</title>
<polygon fill="#ffffb3" stroke="#000000" points="1129.9566,-266 1002.0434,-266 1002.0434,-230 1129.9566,-230 1129.9566,-266"/>
<text text-anchor="middle" x="1066" y="-243.8" font-family="Times,serif" font-size="14.00" fill="#000000">DropdownDirective</text>
</g>
<!-- DropdownDirective&#45;&gt;SharedModule -->
<g id="edge19" class="edge">
<title>DropdownDirective&#45;&gt;SharedModule</title>
<path fill="none" stroke="#000000" d="M1066,-229.7181C1066,-214.0522 1066,-194 1066,-194 1066,-194 1287.732,-194 1287.732,-194"/>
<polygon fill="#000000" stroke="#000000" points="1287.732,-197.5001 1297.732,-194 1287.7319,-190.5001 1287.732,-197.5001"/>
</g>
<!-- LoadingSpinnerComponent -->
<g id="node21" class="node">
<title>LoadingSpinnerComponent</title>
<polygon fill="#ffffb3" stroke="#000000" points="983.5392,-266 812.4608,-266 812.4608,-230 983.5392,-230 983.5392,-266"/>
<text text-anchor="middle" x="898" y="-243.8" font-family="Times,serif" font-size="14.00" fill="#000000">LoadingSpinnerComponent</text>
</g>
<!-- LoadingSpinnerComponent&#45;&gt;SharedModule -->
<g id="edge20" class="edge">
<title>LoadingSpinnerComponent&#45;&gt;SharedModule</title>
<path fill="none" stroke="#000000" d="M898,-229.9775C898,-212.6266 898,-189 898,-189 898,-189 1287.6648,-189 1287.6648,-189"/>
<polygon fill="#000000" stroke="#000000" points="1287.6648,-192.5001 1297.6648,-189 1287.6647,-185.5001 1287.6648,-192.5001"/>
</g>
<!-- PlaceholderDirective -->
<g id="node22" class="node">
<title>PlaceholderDirective</title>
<polygon fill="#ffffb3" stroke="#000000" points="794.1657,-266 659.8343,-266 659.8343,-230 794.1657,-230 794.1657,-266"/>
<text text-anchor="middle" x="727" y="-243.8" font-family="Times,serif" font-size="14.00" fill="#000000">PlaceholderDirective</text>
</g>
<!-- PlaceholderDirective&#45;&gt;SharedModule -->
<g id="edge21" class="edge">
<title>PlaceholderDirective&#45;&gt;SharedModule</title>
<path fill="none" stroke="#000000" d="M727,-229.7778C727,-211.1715 727,-185 727,-185 727,-185 1287.5714,-185 1287.5714,-185"/>
<polygon fill="#000000" stroke="#000000" points="1287.5715,-188.5001 1297.5714,-185 1287.5714,-181.5001 1287.5715,-188.5001"/>
</g>
<!-- ShoppingEditComponent -->
<g id="node27" class="node">
<title>ShoppingEditComponent</title>
<polygon fill="#ffffb3" stroke="#000000" points="3601.3398,-198 3442.6602,-198 3442.6602,-162 3601.3398,-162 3601.3398,-198"/>
<text text-anchor="middle" x="3522" y="-175.8" font-family="Times,serif" font-size="14.00" fill="#000000">ShoppingEditComponent</text>
</g>
<!-- ShoppingEditComponent&#45;&gt;ShoppingListModule -->
<g id="edge26" class="edge">
<title>ShoppingEditComponent&#45;&gt;ShoppingListModule</title>
<path fill="none" stroke="#000000" d="M3522,-198.2228C3522,-218.3652 3522,-248 3522,-248 3522,-248 3423.5428,-248 3423.5428,-248"/>
<polygon fill="#000000" stroke="#000000" points="3423.5429,-244.5001 3413.5428,-248 3423.5428,-251.5001 3423.5429,-244.5001"/>
</g>
<!-- ShoppingListComponent -->
<g id="node28" class="node">
<title>ShoppingListComponent</title>
<polygon fill="#ffffb3" stroke="#000000" points="3424.2841,-198 3267.7159,-198 3267.7159,-162 3424.2841,-162 3424.2841,-198"/>
<text text-anchor="middle" x="3346" y="-175.8" font-family="Times,serif" font-size="14.00" fill="#000000">ShoppingListComponent</text>
</g>
<!-- ShoppingListComponent&#45;&gt;ShoppingListModule -->
<g id="edge27" class="edge">
<title>ShoppingListComponent&#45;&gt;ShoppingListModule</title>
<path fill="none" stroke="#000000" d="M3368.5002,-198.2228C3368.5002,-198.2228 3368.5002,-219.7269 3368.5002,-219.7269"/>
<polygon fill="#000000" stroke="#000000" points="3365.0003,-219.7269 3368.5002,-229.7269 3372.0003,-219.727 3365.0003,-219.7269"/>
</g>
</g>
</svg>
